<svg width="106" height="100" viewBox="0 0 106 100" fill="none" xmlns="http://www.w3.org/2000/svg">
<path d="M80 38.8434C80 43.2434 76.6667 45.6767 75 46.3434C75.8 41.9434 73.6667 41.5101 72.5 41.8434C68.6667 44.3434 60.2 51.7434 57 61.3434C53 73.3434 63.5 89.3434 62 90.8434C60.8 92.0434 55.5 96.0101 53 97.8434V12.8434C63.1667 3.17673 86.9 -9.65661 100.5 16.3434C114.1 42.3434 90.8333 66.5101 77.5 75.3434C74.3 72.1434 73.8333 66.6767 74 64.3434C81.6 59.5434 86.8333 53.3434 88.5 50.8434C88.5 32.3434 89.5 25.3434 84.5 24.8434C79.5 24.3434 80 33.3434 80 38.8434Z" fill="#8AC79F" stroke="#8BC4A1"/>
<path d="M25.6249 39.1868C25.6249 43.5868 28.9582 46.0201 30.6249 46.6868C29.8249 42.2868 31.9582 41.8535 33.1249 42.1868C36.9582 44.6868 45.4249 52.0868 48.6249 61.6868C52.6249 73.6868 42.1249 89.6868 43.6249 91.1868C44.8249 92.3868 50.1249 96.3535 52.6249 98.1868V13.1868C42.4582 3.52013 18.7249 -9.31321 5.12488 16.6868C-8.47512 42.6868 14.7915 66.8535 28.1249 75.6868C31.3249 72.4868 31.7915 67.0201 31.6249 64.6868C24.0249 59.8868 18.7915 53.6868 17.1249 51.1868C17.1249 32.6868 16.1249 25.6868 21.1249 25.1868C26.1249 24.6868 25.6249 33.6868 25.6249 39.1868Z" fill="#385574" stroke="#395474"/>
</svg>
