<svg width="407" height="100" viewBox="0 0 407 100" fill="none" xmlns="http://www.w3.org/2000/svg">
<path d="M80 38.8434C80 43.2434 76.6667 45.6767 75 46.3434C75.8 41.9434 73.6667 41.5101 72.5 41.8434C68.6667 44.3434 60.2 51.7434 57 61.3434C53 73.3434 63.5 89.3434 62 90.8434C60.8 92.0434 55.5 96.0101 53 97.8434V12.8434C63.1667 3.17673 86.9 -9.65661 100.5 16.3434C114.1 42.3434 90.8333 66.5101 77.5 75.3434C74.3 72.1434 73.8333 66.6767 74 64.3434C81.6 59.5434 86.8333 53.3434 88.5 50.8434C88.5 32.3434 89.5 25.3434 84.5 24.8434C79.5 24.3434 80 33.3434 80 38.8434Z" fill="#8AC79F" stroke="#8BC4A1"/>
<path d="M25.6249 39.1868C25.6249 43.5868 28.9582 46.0201 30.6249 46.6868C29.8249 42.2868 31.9582 41.8535 33.1249 42.1868C36.9582 44.6868 45.4249 52.0868 48.6249 61.6868C52.6249 73.6868 42.1249 89.6868 43.6249 91.1868C44.8249 92.3868 50.1249 96.3535 52.6249 98.1868V13.1868C42.4582 3.52013 18.7249 -9.31321 5.12488 16.6868C-8.47512 42.6868 14.7915 66.8535 28.1249 75.6868C31.3249 72.4868 31.7915 67.0201 31.6249 64.6868C24.0249 59.8868 18.7915 53.6868 17.1249 51.1868C17.1249 32.6868 16.1249 25.6868 21.1249 25.1868C26.1249 24.6868 25.6249 33.6868 25.6249 39.1868Z" fill="#385574" stroke="#395474"/>
<path d="M122.8 66.8434C120.667 66.8434 118.667 66.6767 116.8 66.3434C114.967 66.0434 113.383 65.5934 112.05 64.9934V58.1434C113.517 58.7767 115.133 59.2934 116.9 59.6934C118.7 60.0934 120.4 60.2934 122 60.2934C124 60.2934 125.483 60.1101 126.45 59.7434C127.45 59.3767 127.95 58.5767 127.95 57.3434C127.95 56.5101 127.7 55.8434 127.2 55.3434C126.733 54.8434 125.95 54.4101 124.85 54.0434C123.783 53.6434 122.317 53.1767 120.45 52.6434C118.25 51.9767 116.5 51.2434 115.2 50.4434C113.9 49.6101 112.967 48.6101 112.4 47.4434C111.833 46.2767 111.55 44.8434 111.55 43.1434C111.55 40.0767 112.65 37.7267 114.85 36.0934C117.05 34.4601 120.3 33.6434 124.6 33.6434C126.467 33.6434 128.283 33.7934 130.05 34.0934C131.817 34.3601 133.25 34.6767 134.35 35.0434V41.9434C132.917 41.3767 131.467 40.9601 130 40.6934C128.567 40.4267 127.167 40.2934 125.8 40.2934C124 40.2934 122.533 40.4601 121.4 40.7934C120.3 41.1267 119.75 41.8934 119.75 43.0934C119.75 43.7934 119.95 44.3601 120.35 44.7934C120.75 45.1934 121.433 45.5601 122.4 45.8934C123.4 46.2267 124.75 46.6267 126.45 47.0934C129.083 47.7934 131.1 48.6434 132.5 49.6434C133.9 50.6101 134.867 51.7434 135.4 53.0434C135.933 54.3101 136.2 55.7434 136.2 57.3434C136.2 60.1767 135.1 62.4767 132.9 64.2434C130.7 65.9767 127.333 66.8434 122.8 66.8434ZM149.302 66.8434C146.369 66.8434 144.202 66.0934 142.802 64.5934C141.435 63.0934 140.752 61.0267 140.752 58.3934V48.7434H137.552V42.6434H140.752V37.6934L148.802 35.5434V42.6434H154.552L154.202 48.7434H148.802V57.8434C148.802 58.9767 149.085 59.7767 149.652 60.2434C150.219 60.6767 151.069 60.8934 152.202 60.8934C153.169 60.8934 154.152 60.7267 155.152 60.3934V65.8434C153.585 66.5101 151.635 66.8434 149.302 66.8434ZM170.603 66.8434C166.036 66.8434 162.67 65.7934 160.503 63.6934C158.336 61.5601 157.253 58.4934 157.253 54.4934C157.253 50.5267 158.336 47.4767 160.503 45.3434C162.703 43.2101 166.07 42.1434 170.603 42.1434C175.17 42.1434 178.536 43.2101 180.703 45.3434C182.903 47.4767 184.003 50.5267 184.003 54.4934C184.003 58.4934 182.92 61.5601 180.753 63.6934C178.586 65.7934 175.203 66.8434 170.603 66.8434ZM170.603 60.5434C172.47 60.5434 173.803 60.0767 174.603 59.1434C175.403 58.2101 175.803 56.6601 175.803 54.4934C175.803 52.3267 175.403 50.7767 174.603 49.8434C173.803 48.9101 172.47 48.4434 170.603 48.4434C168.77 48.4434 167.453 48.9101 166.653 49.8434C165.853 50.7767 165.453 52.3267 165.453 54.4934C165.453 56.6601 165.853 58.2101 166.653 59.1434C167.453 60.0767 168.77 60.5434 170.603 60.5434ZM200.587 66.8434C196.354 66.8434 193.037 65.8101 190.637 63.7434C188.27 61.6767 187.087 58.5934 187.087 54.4934C187.087 50.3267 188.32 47.2267 190.787 45.1934C193.287 43.1601 196.604 42.1434 200.737 42.1434C202.47 42.1434 203.97 42.2767 205.237 42.5434C206.537 42.7767 207.787 43.1767 208.987 43.7434V49.4434C207.12 48.5434 204.937 48.0934 202.437 48.0934C200.104 48.0934 198.32 48.5601 197.087 49.4934C195.887 50.4267 195.287 52.0934 195.287 54.4934C195.287 56.7267 195.854 58.3601 196.987 59.3934C198.12 60.3934 199.92 60.8934 202.387 60.8934C204.82 60.8934 207.037 60.3934 209.037 59.3934V65.3434C207.837 65.8767 206.537 66.2601 205.137 66.4934C203.77 66.7267 202.254 66.8434 200.587 66.8434ZM213.136 66.3434V32.6434H221.186V50.2434L228.936 42.6434H238.086L228.586 52.4934L238.636 66.3434H230.086L223.536 56.7434L221.186 59.0434V66.3434H213.136Z" fill="#8BC69E"/>
<path d="M256.487 66.8434C250.853 66.8434 246.553 65.4101 243.587 62.5434C240.653 59.6434 239.187 55.6267 239.187 50.4934C239.187 45.1267 240.62 40.9767 243.487 38.0434C246.387 35.1101 250.703 33.6434 256.437 33.6434C258.403 33.6434 260.153 33.7934 261.687 34.0934C263.253 34.3934 264.753 34.7934 266.187 35.2934V42.3434C263.287 41.1434 260.237 40.5434 257.037 40.5434C253.703 40.5434 251.253 41.3434 249.687 42.9434C248.153 44.5434 247.387 47.0601 247.387 50.4934C247.387 53.7601 248.203 56.1601 249.837 57.6934C251.47 59.2267 253.903 59.9934 257.137 59.9934C258.703 59.9934 260.253 59.8601 261.787 59.5934C263.32 59.2934 264.803 58.8434 266.237 58.2434V65.3434C264.837 65.8101 263.353 66.1767 261.787 66.4434C260.22 66.7101 258.453 66.8434 256.487 66.8434ZM270.314 66.3434V32.6434H278.364V44.3934C279.264 43.7267 280.38 43.1934 281.714 42.7934C283.047 42.3601 284.48 42.1434 286.014 42.1434C289.18 42.1434 291.497 42.8934 292.964 44.3934C294.464 45.8934 295.214 48.1934 295.214 51.2934V66.3434H287.164V51.8434C287.164 50.4767 286.88 49.5101 286.314 48.9434C285.747 48.3767 284.73 48.0934 283.264 48.0934C282.397 48.0934 281.514 48.2934 280.614 48.6934C279.714 49.0934 278.964 49.5934 278.364 50.1934V66.3434H270.314ZM306.718 66.8434C305.218 66.8434 303.818 66.5767 302.518 66.0434C301.251 65.5101 300.234 64.6934 299.468 63.5934C298.701 62.4601 298.318 61.0601 298.318 59.3934C298.318 56.9601 299.134 55.0601 300.768 53.6934C302.434 52.2934 304.918 51.5934 308.218 51.5934H314.818V51.0434C314.818 49.8434 314.418 48.9934 313.618 48.4934C312.818 47.9601 311.318 47.6934 309.118 47.6934C306.418 47.6934 303.768 48.1101 301.168 48.9434V43.7434C302.334 43.2767 303.751 42.8934 305.418 42.5934C307.118 42.2934 308.901 42.1434 310.768 42.1434C314.434 42.1434 317.301 42.8934 319.368 44.3934C321.468 45.8934 322.518 48.2767 322.518 51.5434V66.3434H315.468L315.068 64.3434C314.201 65.1434 313.084 65.7601 311.718 66.1934C310.384 66.6267 308.718 66.8434 306.718 66.8434ZM309.268 61.8934C310.534 61.8934 311.634 61.6767 312.568 61.2434C313.501 60.8101 314.251 60.2601 314.818 59.5934V56.2434H309.118C306.751 56.2434 305.568 57.1934 305.568 59.0934C305.568 59.9601 305.868 60.6434 306.468 61.1434C307.068 61.6434 308.001 61.8934 309.268 61.8934ZM327.345 66.3434V42.6434H334.995L335.245 44.8434C336.278 44.2101 337.562 43.6434 339.095 43.1434C340.628 42.6101 342.162 42.2767 343.695 42.1434V48.1934C342.828 48.2934 341.862 48.4601 340.795 48.6934C339.762 48.8934 338.762 49.1434 337.795 49.4434C336.862 49.7434 336.062 50.0601 335.395 50.3934V66.3434H327.345ZM348.33 38.8934V32.8434H357.08V38.8934H348.33ZM348.98 66.3434V48.5934H345.48L346.18 42.6434H357.03V66.3434H348.98ZM371.909 66.8434C368.976 66.8434 366.809 66.0934 365.409 64.5934C364.043 63.0934 363.359 61.0267 363.359 58.3934V48.7434H360.159V42.6434H363.359V37.6934L371.409 35.5434V42.6434H377.159L376.809 48.7434H371.409V57.8434C371.409 58.9767 371.693 59.7767 372.259 60.2434C372.826 60.6767 373.676 60.8934 374.809 60.8934C375.776 60.8934 376.759 60.7267 377.759 60.3934V65.8434C376.193 66.5101 374.243 66.8434 371.909 66.8434ZM385.664 75.1434C384.464 75.1434 383.431 75.0767 382.564 74.9434C381.731 74.8434 380.898 74.6267 380.064 74.2934V68.6934C380.631 68.8934 381.148 69.0267 381.614 69.0934C382.114 69.1601 382.614 69.1934 383.114 69.1934C384.481 69.1934 385.498 68.9434 386.164 68.4434C386.864 67.9767 387.564 67.1267 388.264 65.8934L377.614 42.6434H386.064L392.314 57.6934L398.464 42.6434H406.864L397.814 64.3934C396.914 66.5601 395.914 68.4434 394.814 70.0434C393.714 71.6767 392.431 72.9267 390.964 73.7934C389.498 74.6934 387.731 75.1434 385.664 75.1434Z" fill="#3A5471"/>
</svg>
